<svg width="211" height="52" viewBox="0 0 211 52" fill="none" xmlns="http://www.w3.org/2000/svg">
<path d="M80.7618 39.3594H74.9113V16.7381H66.8948V11.6758H88.7386V16.7381H80.7618V39.3594Z" fill="white"/>
<path d="M105.585 28.2295V30.6051H92.8861C92.9656 34.1234 95.1352 35.6674 98.6715 35.6674C101.044 35.6674 103.047 34.9732 104.891 34.1958V38.4517C102.633 39.4399 100.196 39.9543 97.7314 39.9632C91.8411 39.9632 87.1765 36.5678 87.1765 28.9599C87.144 22.7514 90.637 18.0796 96.7732 18.0796C102.664 18.0796 105.585 22.1367 105.585 28.2295ZM92.9041 26.8807H100.411C100.411 24.223 99.2682 22.3825 96.9359 22.3825C94.2746 22.3825 92.9656 24.2628 92.8861 26.8807H92.9041Z" fill="white"/>
<path d="M123.169 26.1033C123.169 23.7313 121.983 22.5055 119.532 22.5055C117.998 22.4766 116.509 23.0149 115.348 24.0169V39.3593H109.714V18.5352H114.907V21.0663H114.986C115.921 20.1058 117.042 19.3457 118.281 18.8322C119.519 18.3187 120.849 18.0627 122.189 18.0796C126.687 18.0796 128.817 20.7373 128.817 26.0165V39.3521H123.169V26.1033Z" fill="white"/>
<path d="M146.998 36.6582C146.274 37.5163 145.372 38.207 144.355 38.6827C143.338 39.1584 142.23 39.4078 141.108 39.4136C135.789 39.4136 132.599 35.4035 132.599 28.696C132.599 22.3139 136.237 18.1013 141.639 18.1013C142.729 18.1195 143.803 18.3612 144.795 18.8115C145.787 19.2619 146.676 19.9112 147.407 20.7192H147.486V18.5497H152.592V38.3288C152.592 44.9532 149.399 47.9399 142.406 47.9399C139.789 47.9686 137.188 47.5303 134.726 46.6454V42.14C137.506 43.2428 139.509 43.6948 141.516 43.6948C145.443 43.6948 147.078 42.4256 147.078 39.3991V36.6582H146.998ZM142.905 34.9804C144.214 34.9804 145.606 34.4091 146.955 33.2629V24.017C146.433 23.4946 145.813 23.0812 145.13 22.8006C144.447 22.52 143.715 22.3779 142.977 22.3826C140.196 22.3826 138.436 24.7546 138.436 28.6417C138.446 32.7711 140.041 34.9804 142.905 34.9804Z" fill="white"/>
<path d="M157.549 15.2628V10.027H163.194V15.2628H157.549ZM157.549 18.5172H163.194V39.3413H157.549V18.5172Z" fill="white"/>
<path d="M181.556 26.1033C181.556 23.7313 180.37 22.5055 177.914 22.5055C176.385 22.4807 174.9 23.0186 173.742 24.0169V39.3593H168.097V18.5352H173.293V21.0663H173.376C174.311 20.1059 175.431 19.3458 176.669 18.8323C177.907 18.3188 179.236 18.0627 180.576 18.0796C185.074 18.0796 187.2 20.7373 187.2 26.0165V39.3521H181.556V26.1033Z" fill="white"/>
<path d="M205.384 36.6582C204.66 37.5173 203.758 38.2087 202.741 38.6845C201.723 39.1602 200.614 39.409 199.491 39.4136C194.175 39.4136 190.982 35.4035 190.982 28.696C190.982 22.3139 194.623 18.1013 200.022 18.1013C201.114 18.117 202.192 18.3576 203.187 18.808C204.183 19.2584 205.075 19.909 205.808 20.7192H205.887V18.5497H211V38.3288C211 44.9532 207.811 47.9399 200.814 47.9399C198.19 47.9713 195.582 47.5329 193.112 46.6454V42.14C195.893 43.2428 197.896 43.6948 199.899 43.6948C203.83 43.6948 205.464 42.4256 205.464 39.3991V36.6582H205.384ZM201.295 34.9805C202.604 34.9805 203.996 34.4091 205.345 33.2629V24.017C204.823 23.4948 204.203 23.0815 203.52 22.8009C202.837 22.5203 202.105 22.3781 201.367 22.3826C198.583 22.3826 196.826 24.7546 196.826 28.6417C196.833 32.7711 198.427 34.9805 201.291 34.9805H201.295Z" fill="white"/>
<path d="M0 19.1788L11.9253 25.5718L0 31.9611V19.1788Z" fill="#49C6E4"/>
<path d="M23.8469 31.9611L11.9252 25.5718L23.8469 19.1788V31.9611Z" fill="#00BBDE"/>
<path d="M11.9252 25.5718V12.7859L23.8469 19.1788L11.9252 25.5718Z" fill="#ACE0EF"/>
<path d="M11.9253 25.5718L0 19.1788L11.9253 12.7859V25.5718Z" fill="#80D2E9"/>
<path d="M11.9253 25.5718V38.3541L0 31.9612L11.9253 25.5718Z" fill="#ACE0EF"/>
<path d="M11.9252 25.5718L23.8469 31.9612L11.9252 38.3541V25.5718Z" fill="#80D2E9"/>
<path opacity="0.3" d="M23.8469 31.9611V44.747L11.9252 38.3541L23.8469 31.9611Z" fill="#4065AF"/>
<path d="M23.8474 31.9611L35.7727 38.3541L23.8474 44.747V31.9611Z" fill="#8593C9"/>
<path d="M23.8474 19.1789V6.39294L35.7727 12.7859L23.8474 19.1789Z" fill="#A9B1DA"/>
<path opacity="0.5" d="M23.8469 19.1789L11.9252 12.7859L23.8469 6.39294V19.1789Z" fill="#4065AF"/>
<path opacity="0.8" d="M11.9252 12.7859V38.3541L23.8469 31.9611V19.1788L11.9252 12.7859Z" fill="#4065AF"/>
<path d="M23.8474 19.1788V31.9611L35.7727 38.3541V12.7859L23.8474 19.1788Z" fill="#4065AF"/>
<path opacity="0.5" d="M35.7727 38.3541V51.14L23.8474 44.7471L35.7727 38.3541Z" fill="#21B24B"/>
<path opacity="0.5" d="M35.7725 12.7859V0L47.6978 6.39295L35.7725 12.7859Z" fill="#21B24B"/>
<path opacity="0.7" d="M35.7727 12.7859L23.8474 6.39295L35.7727 0V12.7859Z" fill="#21B24B"/>
<path opacity="0.8" d="M23.8474 6.39294V44.747L35.7727 38.3541V12.7859L23.8474 6.39294Z" fill="#21B24B"/>
<path opacity="0.7" d="M35.7725 51.14L47.6978 44.7471L35.7725 38.3541V51.14Z" fill="#21B24B"/>
<path d="M35.7725 12.7859V38.3541L47.6978 44.747V6.39294L35.7725 12.7859Z" fill="#21B24B"/>
</svg>
